<svg width="1280" height="720" viewBox="0 0 1280 720" fill="none" xmlns="http://www.w3.org/2000/svg">
  <defs>
    <linearGradient id="bg" x1="640" y1="0" x2="640" y2="720" gradientUnits="userSpaceOnUse">
      <stop stop-color="#071008"/>
      <stop offset="0.45" stop-color="#040805"/>
      <stop offset="1" stop-color="#010201"/>
    </linearGradient>
    <linearGradient id="leftWall" x1="0" y1="360" x2="390" y2="360" gradientUnits="userSpaceOnUse">
      <stop stop-color="#79B98A"/>
      <stop offset="0.18" stop-color="#4E7C58"/>
      <stop offset="0.65" stop-color="#193120"/>
      <stop offset="1" stop-color="#07100B"/>
    </radialGradient>
    <linearGradient id="vaultDoor" x1="866" y1="140" x2="1028" y2="526" gradientUnits="userSpaceOnUse">
      <stop stop-color="#E7F6E9"/>
      <stop offset="0.24" stop-color="#9AB59D"/>
      <stop offset="0.72" stop-color="#48604C"/>
      <stop offset="1" stop-color="#101713"/>
    </linearGradient>
    <linearGradient id="doorFrame" x1="986" y1="106" x2="1118" y2="596" gradientUnits="userSpaceOnUse">
      <stop stop-color="#19211B"/>
      <stop offset="0.3" stop-color="#090D0A"/>
      <stop offset="1" stop-color="#000000"/>
    </linearGradient>
    <radialGradient id="centerVoid" cx="0" cy="0" r="1" gradientUnits="userSpaceOnUse" gradientTransform="translate(640 310) rotate(90) scale(310 228)">
      <stop stop-color="#030504"/>
      <stop offset="0.72" stop-color="#000000"/>
      <stop offset="1" stop-color="#000000" stop-opacity="0.18"/>
    </radialGradient>
    <radialGradient id="nightVisionGlow" cx="0" cy="0" r="1" gradientUnits="userSpaceOnUse" gradientTransform="translate(628 298) rotate(90) scale(410 690)">
      <stop stop-color="#7AFF93" stop-opacity="0.12"/>
      <stop offset="0.46" stop-color="#33563A" stop-opacity="0.08"/>
      <stop offset="1" stop-color="#000000" stop-opacity="0"/>
    </radialGradient>
    <radialGradient id="topLight" cx="0" cy="0" r="1" gradientUnits="userSpaceOnUse" gradientTransform="translate(932 132) rotate(90) scale(132 236)">
      <stop stop-color="#D8FFE2" stop-opacity="0.34"/>
      <stop offset="1" stop-color="#D8FFE2" stop-opacity="0"/>
    </radialGradient>
    <filter id="grain" x="-20%" y="-20%" width="140%" height="140%">
      <feTurbulence type="fractalNoise" baseFrequency="0.92" numOctaves="2" stitchTiles="stitch"/>
      <feColorMatrix type="matrix" values="1 0 0 0 0  0 1 0 0 0  0 0 1 0 0  0 0 0 0.12 0"/>
    </filter>
    <filter id="softBlur" x="-20%" y="-20%" width="140%" height="140%">
      <feGaussianBlur stdDeviation="10"/>
    </filter>
  </defs>

  <rect width="1280" height="720" fill="url(#bg)"/>
  <rect width="1280" height="720" fill="url(#nightVisionGlow)"/>

  <g>
    <path d="M0 0H410L332 720H0V0Z" fill="url(#leftWall)"/>
    <path d="M92 0H410L352 720H126L92 0Z" fill="#0A160D" fill-opacity="0.42"/>
    <path d="M72 0H144V720H44L72 0Z" fill="#0A130D" fill-opacity="0.68"/>
    <path d="M0 576H278L242 720H0V576Z" fill="#B8FFCB" fill-opacity="0.1"/>
    <path d="M98 0V720" stroke="#D4FFE0" stroke-opacity="0.12" stroke-width="2"/>
    <path d="M142 0V720" stroke="#D4FFE0" stroke-opacity="0.06" stroke-width="1.5"/>
    <path d="M186 0V720" stroke="#D4FFE0" stroke-opacity="0.05" stroke-width="1.5"/>
  </g>

  <rect x="1046" y="0" width="234" height="720" fill="#020302"/>
  <rect x="1158" y="0" width="52" height="720" fill="#050706"/>
  <rect x="1216" y="0" width="64" height="720" fill="#000000"/>

  <rect x="884" y="78" width="154" height="484" fill="url(#vaultDoor)"/>
  <rect x="877" y="72" width="170" height="496" stroke="#DFFFE8" stroke-opacity="0.26" stroke-width="6"/>
  <path d="M920 108H1002" stroke="#102016" stroke-opacity="0.48" stroke-width="3"/>
  <path d="M920 148H1002" stroke="#102016" stroke-opacity="0.28" stroke-width="2"/>
  <path d="M920 188H1002" stroke="#102016" stroke-opacity="0.2" stroke-width="2"/>
  <circle cx="1040" cy="112" r="7" fill="#152118"/>
  <circle cx="1040" cy="164" r="7" fill="#152118"/>
  <circle cx="1040" cy="216" r="7" fill="#152118"/>
  <circle cx="1040" cy="268" r="7" fill="#152118"/>
  <circle cx="1040" cy="320" r="7" fill="#152118"/>
  <circle cx="1040" cy="372" r="7" fill="#152118"/>
  <circle cx="1040" cy="424" r="7" fill="#152118"/>
  <circle cx="1040" cy="476" r="7" fill="#152118"/>
  <circle cx="1040" cy="528" r="7" fill="#152118"/>

  <path d="M1018 68H1164V590H1060L1018 68Z" fill="url(#doorFrame)"/>
  <path d="M1074 88H1140V566H1096L1074 88Z" fill="#0B0F0C"/>
  <path d="M1102 108H1132V548H1112L1102 108Z" fill="#1A211D" fill-opacity="0.52"/>

  <path d="M360 88H878V584H300L360 88Z" fill="url(#centerVoid)"/>
  <path d="M360 88H878" stroke="#CFFFD9" stroke-opacity="0.06" stroke-width="4"/>
  <path d="M300 584H878" stroke="#CFFFD9" stroke-opacity="0.04" stroke-width="4"/>

  <rect x="0" y="0" width="1280" height="720" fill="url(#topLight)" opacity="0.76"/>

  <g opacity="0.36" filter="url(#softBlur)">
    <ellipse cx="924" cy="248" rx="190" ry="220" fill="#D2FFDE"/>
    <ellipse cx="160" cy="620" rx="190" ry="120" fill="#8FFFAC"/>
  </g>

  <circle cx="290" cy="366" r="7" fill="#E4FFEB" fill-opacity="0.22"/>
  <circle cx="1016" cy="274" r="3" fill="#E4FFEB" fill-opacity="0.28"/>
  <circle cx="730" cy="176" r="2.5" fill="#E4FFEB" fill-opacity="0.22"/>
  <circle cx="218" cy="420" r="4" fill="#E4FFEB" fill-opacity="0.12"/>

  <rect width="1280" height="720" fill="#D6FFE3" filter="url(#grain)" opacity="0.28"/>
  <rect width="1280" height="720" fill="#000000" opacity="0.18"/>
</svg>